Coordinates
version=1
nRows=26
nColumns=22
inDegrees=yes

Units are S.I. units (second, meters, Newtons, ...)
If the header above contains a line with 'inDegrees', this indicates whether rotational values are in degrees (yes) or radians (no).

endheader
time	pelvis_tilt	pelvis_list	pelvis_rotation	pelvis_tx	pelvis_ty	pelvis_tz	hip_flexion_r	hip_adduction_r	hip_rotation_r	knee_angle_r	ankle_angle_r	subtalar_angle_r	hip_flexion_l	hip_adduction_l	hip_rotation_l	knee_angle_l	ankle_angle_l	subtalar_angle_l	lumbar_extension	lumbar_bending	lumbar_rotation
      1.57000000	      1.41585070	     -3.82877808	     -2.99945078	     -1.11177576	      1.01739173	     -0.25991858	     -4.89244856	      8.94789419	     -7.75257193	     -9.98632998	     13.24119024	     -4.41322620	     22.17368948	     -4.77885748	     -3.44723500	    -31.69900958	      9.37354515	      3.56328971	    -15.01419914	      2.18695142	      6.07985351
      1.58000000	      1.40469584	     -3.81897148	     -2.95215342	     -1.10929435	      1.01703626	     -0.26028455	     -5.04096500	      8.92040926	     -7.72637244	     -9.98032096	     13.37216650	     -4.40342707	     22.28890416	     -4.62275438	     -3.59850687	    -30.87923405	      8.99445441	      3.63361419	    -15.05179925	      2.22160406	      6.09413633
      1.59000000	      1.40487100	     -3.79960569	     -2.92183694	     -1.10669717	      1.01667352	     -0.26066784	     -5.20237893	      8.87454360	     -7.71538589	     -9.98614759	     13.53481925	     -4.38775396	     22.37143026	     -4.46318192	     -3.78514216	    -30.07323362	      8.66255821	      3.71281620	    -15.09668756	      2.24252488	      6.13782519
      1.60000000	      1.40209084	     -3.79297304	     -2.90394442	     -1.10400805	      1.01626879	     -0.26104729	     -5.36094583	      8.83976575	     -7.69747521	    -10.00389076	     13.70321948	     -4.36676185	     22.44978299	     -4.32433893	     -3.98868851	    -29.30913332	      8.36947052	      3.78195516	    -15.13711354	      2.27123123	      6.19748585
      1.61000000	      1.39711567	     -3.79021121	     -2.90805859	     -1.10121682	      1.01582962	     -0.26143672	     -5.51314863	      8.80133827	     -7.67095217	    -10.04302498	     13.88427988	     -4.33875489	     22.51811413	     -4.19853673	     -4.21180696	    -28.58937145	      8.10950785	      3.83296937	    -15.17273671	      2.30441793	      6.26809172
      1.62000000	      1.38512642	     -3.79854270	     -2.92992159	     -1.09832057	      1.01534474	     -0.26180284	     -5.65570868	      8.77164573	     -7.63397752	    -10.10100285	     14.07674833	     -4.30556231	     22.58335748	     -4.09317178	     -4.43040422	    -27.92377547	      7.87791719	      3.85430337	    -15.19763713	      2.34068729	      6.35828403
      1.63000000	      1.36382967	     -3.81353466	     -2.97331128	     -1.09532836	      1.01480936	     -0.26217091	     -5.77808242	      8.74299093	     -7.57770746	    -10.19297798	     14.28238553	     -4.27216719	     22.64896178	     -4.00227420	     -4.63799588	    -27.32281311	      7.66636247	      3.84456809	    -15.21305313	      2.38398624	      6.44796830
      1.64000000	      1.33605596	     -3.83717778	     -3.03868549	     -1.09222111	      1.01422970	     -0.26252434	     -5.88921786	      8.71785029	     -7.50972947	    -10.30994567	     14.50427449	     -4.23404590	     22.70580790	     -3.92843566	     -4.82173266	    -26.78370755	      7.48816287	      3.80798546	    -15.21734249	      2.43107507	      6.55262591
      1.65000000	      1.30010429	     -3.86849474	     -3.12644155	     -1.08900438	      1.01360311	     -0.26285874	     -5.98611381	      8.69581779	     -7.42833418	    -10.45356275	     14.73967461	     -4.18788871	     22.75349880	     -3.87064657	     -4.97516938	    -26.30734566	      7.34309198	      3.75008852	    -15.21076538	      2.48091893	      6.66688610
      1.66000000	      1.25377991	     -3.90962208	     -3.23626926	     -1.08568036	      1.01292572	     -0.26317114	     -6.06531396	      8.67899877	     -7.33407824	    -10.62644521	     14.98761512	     -4.13581338	     22.79194150	     -3.83045873	     -5.08852954	    -25.89340317	      7.23032339	      3.68390079	    -15.18972526	      2.53636555	      6.78757958
      1.67000000	      1.19542897	     -3.95737269	     -3.37094960	     -1.08224583	      1.01219611	     -0.26344189	     -6.12368085	      8.66504158	     -7.22529314	    -10.83170188	     15.24786105	     -4.07422573	     22.81702440	     -3.80742994	     -5.16605097	    -25.53579849	      7.15079450	      3.61647495	    -15.15156914	      2.58828078	      6.91816967
      1.68000000	      1.12523030	     -4.01117573	     -3.52890140	     -1.07871164	      1.01141913	     -0.26369730	     -6.16317471	      8.65124849	     -7.10844720	    -11.06182832	     15.51334756	     -4.01241651	     22.82558565	     -3.79702790	     -5.20303079	    -25.23011287	      7.10293646	      3.56344279	    -15.10000458	      2.64490413	      7.05205186
      1.69000000	      1.04353586	     -4.06238451	     -3.72197895	     -1.07505319	      1.01060115	     -0.26390182	     -6.18095640	      8.62774647	     -6.97564106	    -11.32713433	     15.78363613	     -3.93943357	     22.80888762	     -3.79625840	     -5.21446334	    -24.96962667	      7.07395524	      3.51745625	    -15.02674163	      2.68725167	      7.19110287
      1.70000000	      0.95577500	     -4.10803239	     -3.93518155	     -1.07125936	      1.00975342	     -0.26408143	     -6.18913797	      8.59382152	     -6.82840072	    -11.61441698	     16.06707509	     -3.86799163	     22.75869726	     -3.79665157	     -5.20033521	    -24.74551911	      7.04784546	      3.47811780	    -14.93607433	      2.71616743	      7.32880190
      1.71000000	      0.86592790	     -4.14074084	     -4.17018031	     -1.06732367	      1.00889428	     -0.26424163	     -6.19025356	      8.54089699	     -6.65898570	    -11.92764644	     16.35425058	     -3.79317812	     22.66939536	     -3.78908060	     -5.17036754	    -24.55331353	      7.00197208	      3.42413519	    -14.83007676	      2.72263227	      7.46098479
      1.72000000	      0.77874913	     -4.15423712	     -4.42217827	     -1.06324028	      1.00804240	     -0.26439289	     -6.19022408	      8.46328430	     -6.46258774	    -12.26325248	     16.64635648	     -3.71333622	     22.53846744	     -3.76513685	     -5.13442109	    -24.39200431	      6.91482351	      3.32462858	    -14.71114079	      2.70090877	      7.57932709
      1.73000000	      0.69745899	     -4.13948589	     -4.68715742	     -1.05900504	      1.00721510	     -0.26454642	     -6.19322260	      8.35196473	     -6.23915442	    -12.61900946	     16.93627772	     -3.61870835	     22.37018955	     -3.71615014	     -5.11832269	    -24.26379306	      6.77075319	      3.12539016	    -14.58008556	      2.64289907	      7.66939694
      1.74000000	      0.63645019	     -4.10926295	     -4.95074939	     -1.05463230	      1.00644923	     -0.26472706	     -6.21336916	      8.22006641	     -5.99936439	    -12.99402453	     17.18749361	     -3.45208536	     22.16412803	     -3.64512759	     -5.09516267	    -24.18394214	      6.58493841	      2.60647235	    -14.45791402	      2.56355128	      7.73676956
      1.75000000	      0.58956957	     -4.03529079	     -5.20375015	     -1.05010998	      1.00575354	     -0.26494961	     -6.24925903	      8.04144376	     -5.74602158	    -13.37561224	     17.45109854	     -3.34518328	     21.94094630	     -3.52382801	     -5.09416806	    -24.15431347	      6.33787204	      2.05177602	    -14.32958509	      2.43645541	      7.75208916
      1.76000000	      0.55380856	     -3.93486325	     -5.43569275	     -1.04544613	      1.00514363	     -0.26521901	     -6.30223142	      7.83640777	     -5.48475183	    -13.75330875	     17.69359229	     -3.21908777	     21.71444527	     -3.36942209	     -5.11183918	    -24.17726841	      6.05401762	      1.33406921	    -14.19633943	      2.28326733	      7.69574526
      1.77000000	      0.53291409	     -3.79858409	     -5.64877785	     -1.04066962	      1.00463660	     -0.26554596	     -6.36394038	      7.59205979	     -5.22194494	    -14.14673247	     17.90109851	     -3.07291050	     21.49448535	     -3.17047986	     -5.14053286	    -24.26015626	      5.77356596	      0.52547671	    -14.06574601	      2.09210265	      7.59441116
      1.78000000	      0.52825281	     -3.63341973	     -5.83321531	     -1.03578799	      1.00424919	     -0.26595769	     -6.43648691	      7.31524216	     -4.96592151	    -14.55237398	     18.06562150	     -2.90013722	     21.28133216	     -2.93081499	     -5.17040496	    -24.39306217	      5.52599504	     -0.30762016	    -13.94294560	      1.87735145	      7.44275101
      1.79000000	      0.54176434	     -3.44577968	     -5.99188292	     -1.03081969	      1.00398616	     -0.26645619	     -6.52196450	      7.01188569	     -4.71078372	    -14.97074472	     18.18694120	     -2.69085560	     21.06781584	     -2.65588521	     -5.18681035	    -24.55984476	      5.33201960	     -1.11223694	    -13.83445921	      1.64512246	      7.25198680
      1.80000000	      0.57098687	     -3.23885759	     -6.12909924	     -1.02577716	      1.00385119	     -0.26703694	     -6.61410456	      6.68422441	     -4.45121835	    -15.40719210	     18.26000845	     -2.43855086	     20.84434389	     -2.35185902	     -5.19074699	    -24.73818225	      5.20828702	     -1.83129181	    -13.74056596	      1.39911899	      7.02971993
      1.81000000	      0.60535091	     -3.01219101	     -6.25982502	     -1.02070013	      1.00382288	     -0.26768158	     -6.68222644	      6.32802130	     -4.20724055	    -15.89470090	     18.30826221	     -2.18587538	     20.61277424	     -2.02778732	     -5.21346989	    -24.90856307	      5.13892600	     -2.33405488	    -13.65457282	      1.13649898	      6.80325823
      1.82000000	      0.65339014	     -2.80310263	     -6.36351458	     -1.01554612	      1.00391762	     -0.26841891	     -6.78425474	      5.98932219	     -3.94292153	    -16.34844113	     18.25883159	     -1.79581358	     20.35145538	     -1.71304094	     -5.22262493	    -25.06108353	      5.20157347	     -2.86665365	    -13.58381912	      0.90452997	      6.56003183
